<svg xmlns="http://www.w3.org/2000/svg" xmlns:xlink="http://www.w3.org/1999/xlink" viewBox="0 0 100 100" version="1.1" x="0px" y="0px"><g stroke="none" stroke-width="1" fill="none" fill-rule="evenodd"><g fill-rule="nonzero" fill="#000000"><path d="M20,19 L34,19 L34,19 C35.8885438,19 37.6668737,19.8891649 38.8,21.4 L41.2,24.6 L41.2,24.6 C42.3331263,26.1108351 44.1114562,27 46,27 L80,27 L80,27 C83.3137085,27 86,29.6862915 86,33 L86,75 L86,75 C86,78.3137085 83.3137085,81 80,81 L20,81 L20,81 C16.6862915,81 14,78.3137085 14,75 L14,25 L14,25 C14,21.6862915 16.6862915,19 20,19 Z"/></g></g></svg>